# xmcd
# Track frame offsets:
# 150
# 13155
# 28168
# 44165
# 55235
# 67625
# 83138
# 93013
# 102965
# 115735
# 128013
# 141595
# 154845
# 170140
#
# Disc length: 2438 seconds
# Revision: 4
# Processed by: cddbd v1.4PL0 Copyright (c) Steve Scherf et al.
# Submitted via: VisiTrax 2.9.5.181 - For more info visit www.synapsa.com
#
DISCID=bc09840e
DTITLE=Various Artist - Country Collection VOL II
DYEAR=1986
DGENRE=country
TTITLE0=Faron Young - It's four in the morning
TTITLE1=Jeannie C. Riley - Harper vally pta
TTITLE2=Jonny Russel - Luckenbach, Texas
TTITLE3=Jonny Russel - Blue eyes cryin' in the rain
TTITLE4=Jonny Paycheck - Take this job and shove it
TTITLE5=Melba Montgomery - No charge
TTITLE6=Ned Miller - From a jack to a king
TTITLE7=Hank Locklin - Please Help me I'm falling
TTITLE8=Claude King - Wolverton mountain
TTITLE9=Stonewall Jackson - I love you because
TTITLE10=Jimmy Dean - Big Bad John
TTITLE11=Lynn Anderson - Rose Garden
TTITLE12=Narvel Felts - Everything is beautiful
TTITLE13=Jonny Russel - Good hearted woman
EXTD=
EXTT0=
EXTT1=
EXTT2=
EXTT3=
EXTT4=
EXTT5=
EXTT6=
EXTT7=
EXTT8=
EXTT9=
EXTT10=
EXTT11=
EXTT12=
EXTT13=
PLAYORDER=
